<mxfile host="app.diagrams.net" modified="2023-05-13T16:03:33.526Z" agent="Mozilla/5.0 (Windows NT 10.0; Win64; x64; rv:109.0) Gecko/20100101 Firefox/113.0" etag="kTu-OJti2ond_jePj-G9" version="21.3.0" type="github">
  <diagram name="Page-1" id="-goPwTN756h73ukjILad">
    <mxGraphModel dx="954" dy="556" grid="1" gridSize="10" guides="1" tooltips="1" connect="1" arrows="1" fold="1" page="1" pageScale="1" pageWidth="1100" pageHeight="1700" math="0" shadow="0">
      <root>
        <mxCell id="0" />
        <mxCell id="1" parent="0" />
        <mxCell id="7k01nNC0SqOBBTKbioc5-2" value="Actor" style="shape=umlActor;verticalLabelPosition=bottom;verticalAlign=top;html=1;outlineConnect=0;" vertex="1" parent="1">
          <mxGeometry x="80" y="40" width="30" height="60" as="geometry" />
        </mxCell>
        <mxCell id="7k01nNC0SqOBBTKbioc5-3" value="Website" style="html=1;whiteSpace=wrap;" vertex="1" parent="1">
          <mxGeometry x="260" y="45" width="110" height="50" as="geometry" />
        </mxCell>
        <mxCell id="7k01nNC0SqOBBTKbioc5-4" value="Server" style="html=1;whiteSpace=wrap;" vertex="1" parent="1">
          <mxGeometry x="520" y="45" width="110" height="50" as="geometry" />
        </mxCell>
        <mxCell id="7k01nNC0SqOBBTKbioc5-5" value="Database" style="html=1;whiteSpace=wrap;" vertex="1" parent="1">
          <mxGeometry x="780" y="45" width="110" height="50" as="geometry" />
        </mxCell>
        <mxCell id="7k01nNC0SqOBBTKbioc5-6" value="Payment gateway" style="html=1;whiteSpace=wrap;" vertex="1" parent="1">
          <mxGeometry x="1040" y="45" width="110" height="50" as="geometry" />
        </mxCell>
        <mxCell id="7k01nNC0SqOBBTKbioc5-7" value="" style="endArrow=none;dashed=1;endFill=0;endSize=12;html=1;rounded=0;" edge="1" parent="1">
          <mxGeometry width="160" relative="1" as="geometry">
            <mxPoint x="94.5" y="120" as="sourcePoint" />
            <mxPoint x="90" y="1040" as="targetPoint" />
          </mxGeometry>
        </mxCell>
        <mxCell id="7k01nNC0SqOBBTKbioc5-8" value="" style="endArrow=none;dashed=1;endFill=0;endSize=12;html=1;rounded=0;" edge="1" parent="1" source="7k01nNC0SqOBBTKbioc5-44">
          <mxGeometry width="160" relative="1" as="geometry">
            <mxPoint x="314.5" y="95" as="sourcePoint" />
            <mxPoint x="315" y="1040" as="targetPoint" />
          </mxGeometry>
        </mxCell>
        <mxCell id="7k01nNC0SqOBBTKbioc5-9" value="" style="endArrow=none;dashed=1;endFill=0;endSize=12;html=1;rounded=0;" edge="1" parent="1" source="7k01nNC0SqOBBTKbioc5-46">
          <mxGeometry width="160" relative="1" as="geometry">
            <mxPoint x="574.5" y="95" as="sourcePoint" />
            <mxPoint x="575" y="1040" as="targetPoint" />
          </mxGeometry>
        </mxCell>
        <mxCell id="7k01nNC0SqOBBTKbioc5-10" value="" style="endArrow=none;dashed=1;endFill=0;endSize=12;html=1;rounded=0;" edge="1" parent="1" source="7k01nNC0SqOBBTKbioc5-48">
          <mxGeometry width="160" relative="1" as="geometry">
            <mxPoint x="834.5" y="95" as="sourcePoint" />
            <mxPoint x="835" y="1040" as="targetPoint" />
          </mxGeometry>
        </mxCell>
        <mxCell id="7k01nNC0SqOBBTKbioc5-11" value="" style="endArrow=none;dashed=1;endFill=0;endSize=12;html=1;rounded=0;" edge="1" parent="1" source="7k01nNC0SqOBBTKbioc5-50">
          <mxGeometry width="160" relative="1" as="geometry">
            <mxPoint x="1094.5" y="95" as="sourcePoint" />
            <mxPoint x="1095" y="1040" as="targetPoint" />
          </mxGeometry>
        </mxCell>
        <mxCell id="7k01nNC0SqOBBTKbioc5-12" value="&lt;pre&gt;&lt;code class=&quot;!whitespace-pre hljs language-rust&quot;&gt;Navigates to tour package &lt;br&gt;reservation page&lt;/code&gt;&lt;/pre&gt;" style="text;html=1;align=center;verticalAlign=middle;resizable=0;points=[];autosize=1;strokeColor=none;fillColor=none;" vertex="1" parent="1">
          <mxGeometry x="100" y="138" width="210" height="70" as="geometry" />
        </mxCell>
        <mxCell id="7k01nNC0SqOBBTKbioc5-13" value="&lt;pre&gt;&lt;code class=&quot;!whitespace-pre hljs language-rust&quot;&gt;Show tour package reservation &lt;br&gt;page&lt;/code&gt;&lt;/pre&gt;" style="text;html=1;align=center;verticalAlign=middle;resizable=0;points=[];autosize=1;strokeColor=none;fillColor=none;" vertex="1" parent="1">
          <mxGeometry x="90" y="220" width="230" height="70" as="geometry" />
        </mxCell>
        <mxCell id="7k01nNC0SqOBBTKbioc5-14" value="&lt;pre&gt;&lt;code class=&quot;!whitespace-pre hljs language-rust&quot;&gt;Selects desired tour package &lt;br&gt;and date&lt;/code&gt;&lt;/pre&gt;" style="text;html=1;align=center;verticalAlign=middle;resizable=0;points=[];autosize=1;strokeColor=none;fillColor=none;" vertex="1" parent="1">
          <mxGeometry x="90" y="290" width="230" height="70" as="geometry" />
        </mxCell>
        <mxCell id="7k01nNC0SqOBBTKbioc5-15" value="&lt;pre&gt;&lt;code class=&quot;!whitespace-pre hljs language-rust&quot;&gt;Sends request to check tour &lt;br&gt;package availability&lt;/code&gt;&lt;/pre&gt;" style="text;html=1;align=center;verticalAlign=middle;resizable=0;points=[];autosize=1;strokeColor=none;fillColor=none;" vertex="1" parent="1">
          <mxGeometry x="340" y="340" width="220" height="70" as="geometry" />
        </mxCell>
        <mxCell id="7k01nNC0SqOBBTKbioc5-16" value="&lt;pre&gt;&lt;code class=&quot;!whitespace-pre hljs language-rust&quot;&gt;Queries database for &lt;span class=&quot;hljs-title class_&quot;&gt;tour&lt;/span&gt; &lt;br&gt;package availability&lt;/code&gt;&lt;/pre&gt;" style="text;html=1;align=center;verticalAlign=middle;resizable=0;points=[];autosize=1;strokeColor=none;fillColor=none;" vertex="1" parent="1">
          <mxGeometry x="600" y="400" width="210" height="70" as="geometry" />
        </mxCell>
        <mxCell id="7k01nNC0SqOBBTKbioc5-17" value="&lt;pre&gt;&lt;code class=&quot;!whitespace-pre hljs language-rust&quot;&gt;Returns tour package availability&lt;/code&gt;&lt;/pre&gt;" style="text;html=1;align=center;verticalAlign=middle;resizable=0;points=[];autosize=1;strokeColor=none;fillColor=none;" vertex="1" parent="1">
          <mxGeometry x="580" y="480" width="250" height="50" as="geometry" />
        </mxCell>
        <mxCell id="7k01nNC0SqOBBTKbioc5-18" value="&lt;pre&gt;&lt;code class=&quot;!whitespace-pre hljs language-rust&quot;&gt;Show tour package availability &lt;br&gt;to customer&lt;/code&gt;&lt;/pre&gt;" style="text;html=1;align=center;verticalAlign=middle;resizable=0;points=[];autosize=1;strokeColor=none;fillColor=none;" vertex="1" parent="1">
          <mxGeometry x="330" y="530" width="240" height="70" as="geometry" />
        </mxCell>
        <mxCell id="7k01nNC0SqOBBTKbioc5-19" value="&lt;pre&gt;&lt;code class=&quot;!whitespace-pre hljs language-rust&quot;&gt;Confirms tour package &lt;br&gt;reservation&lt;/code&gt;&lt;/pre&gt;" style="text;html=1;align=center;verticalAlign=middle;resizable=0;points=[];autosize=1;strokeColor=none;fillColor=none;" vertex="1" parent="1">
          <mxGeometry x="115" y="590" width="180" height="70" as="geometry" />
        </mxCell>
        <mxCell id="7k01nNC0SqOBBTKbioc5-20" value="&lt;pre&gt;&lt;code class=&quot;!whitespace-pre hljs language-rust&quot;&gt;Sends request to make payment&lt;/code&gt;&lt;/pre&gt;" style="text;html=1;align=center;verticalAlign=middle;resizable=0;points=[];autosize=1;strokeColor=none;fillColor=none;" vertex="1" parent="1">
          <mxGeometry x="340" y="670" width="230" height="50" as="geometry" />
        </mxCell>
        <mxCell id="7k01nNC0SqOBBTKbioc5-23" value="&lt;pre&gt;&lt;code class=&quot;!whitespace-pre hljs language-rust&quot;&gt;Updates database with confirms &lt;br&gt;reservation&lt;/code&gt;&lt;/pre&gt;" style="text;html=1;align=center;verticalAlign=middle;resizable=0;points=[];autosize=1;strokeColor=none;fillColor=none;" vertex="1" parent="1">
          <mxGeometry x="585" y="830" width="240" height="70" as="geometry" />
        </mxCell>
        <mxCell id="7k01nNC0SqOBBTKbioc5-24" value="Return confirmation status" style="text;html=1;align=center;verticalAlign=middle;resizable=0;points=[];autosize=1;strokeColor=none;fillColor=none;" vertex="1" parent="1">
          <mxGeometry x="620" y="910" width="170" height="30" as="geometry" />
        </mxCell>
        <mxCell id="7k01nNC0SqOBBTKbioc5-25" value="&lt;pre&gt;&lt;code class=&quot;!whitespace-pre hljs language-rust&quot;&gt;Show confirmation message &lt;br&gt;to customer&lt;/code&gt;&lt;/pre&gt;" style="text;html=1;align=center;verticalAlign=middle;resizable=0;points=[];autosize=1;strokeColor=none;fillColor=none;" vertex="1" parent="1">
          <mxGeometry x="345" y="940" width="210" height="70" as="geometry" />
        </mxCell>
        <mxCell id="7k01nNC0SqOBBTKbioc5-30" value="" style="endArrow=block;endFill=0;endSize=12;html=1;rounded=0;entryX=1.01;entryY=0.886;entryDx=0;entryDy=0;entryPerimeter=0;" edge="1" parent="1" target="7k01nNC0SqOBBTKbioc5-12">
          <mxGeometry width="160" relative="1" as="geometry">
            <mxPoint x="100" y="200" as="sourcePoint" />
            <mxPoint x="260" y="200" as="targetPoint" />
          </mxGeometry>
        </mxCell>
        <mxCell id="7k01nNC0SqOBBTKbioc5-31" value="" style="endArrow=block;endFill=0;endSize=12;html=1;rounded=0;entryX=1.01;entryY=0.886;entryDx=0;entryDy=0;entryPerimeter=0;" edge="1" parent="1">
          <mxGeometry width="160" relative="1" as="geometry">
            <mxPoint x="310" y="280" as="sourcePoint" />
            <mxPoint x="98" y="280" as="targetPoint" />
          </mxGeometry>
        </mxCell>
        <mxCell id="7k01nNC0SqOBBTKbioc5-32" value="" style="endArrow=block;endFill=0;endSize=12;html=1;rounded=0;entryX=1.01;entryY=0.886;entryDx=0;entryDy=0;entryPerimeter=0;" edge="1" parent="1">
          <mxGeometry width="160" relative="1" as="geometry">
            <mxPoint x="100" y="340" as="sourcePoint" />
            <mxPoint x="312" y="340" as="targetPoint" />
          </mxGeometry>
        </mxCell>
        <mxCell id="7k01nNC0SqOBBTKbioc5-33" value="" style="endArrow=block;endFill=0;endSize=12;html=1;rounded=0;" edge="1" parent="1">
          <mxGeometry width="160" relative="1" as="geometry">
            <mxPoint x="320" y="400" as="sourcePoint" />
            <mxPoint x="570" y="400" as="targetPoint" />
          </mxGeometry>
        </mxCell>
        <mxCell id="7k01nNC0SqOBBTKbioc5-34" value="" style="endArrow=block;endFill=0;endSize=12;html=1;rounded=0;" edge="1" parent="1">
          <mxGeometry width="160" relative="1" as="geometry">
            <mxPoint x="570" y="580" as="sourcePoint" />
            <mxPoint x="320" y="580" as="targetPoint" />
          </mxGeometry>
        </mxCell>
        <mxCell id="7k01nNC0SqOBBTKbioc5-35" value="" style="endArrow=block;endFill=0;endSize=12;html=1;rounded=0;" edge="1" parent="1">
          <mxGeometry width="160" relative="1" as="geometry">
            <mxPoint x="320" y="710" as="sourcePoint" />
            <mxPoint x="570" y="710" as="targetPoint" />
          </mxGeometry>
        </mxCell>
        <mxCell id="7k01nNC0SqOBBTKbioc5-36" value="" style="endArrow=block;endFill=0;endSize=12;html=1;rounded=0;entryX=1.01;entryY=0.886;entryDx=0;entryDy=0;entryPerimeter=0;" edge="1" parent="1">
          <mxGeometry width="160" relative="1" as="geometry">
            <mxPoint x="98" y="640" as="sourcePoint" />
            <mxPoint x="310" y="640" as="targetPoint" />
          </mxGeometry>
        </mxCell>
        <mxCell id="7k01nNC0SqOBBTKbioc5-37" value="" style="endArrow=block;endFill=0;endSize=12;html=1;rounded=0;" edge="1" parent="1">
          <mxGeometry width="160" relative="1" as="geometry">
            <mxPoint x="570" y="1000" as="sourcePoint" />
            <mxPoint x="320" y="1000" as="targetPoint" />
          </mxGeometry>
        </mxCell>
        <mxCell id="7k01nNC0SqOBBTKbioc5-38" value="" style="endArrow=block;endFill=0;endSize=12;html=1;rounded=0;" edge="1" parent="1">
          <mxGeometry width="160" relative="1" as="geometry">
            <mxPoint x="580" y="450" as="sourcePoint" />
            <mxPoint x="830" y="450" as="targetPoint" />
          </mxGeometry>
        </mxCell>
        <mxCell id="7k01nNC0SqOBBTKbioc5-39" value="" style="endArrow=block;endFill=0;endSize=12;html=1;rounded=0;" edge="1" parent="1">
          <mxGeometry width="160" relative="1" as="geometry">
            <mxPoint x="830" y="520" as="sourcePoint" />
            <mxPoint x="580" y="520" as="targetPoint" />
          </mxGeometry>
        </mxCell>
        <mxCell id="7k01nNC0SqOBBTKbioc5-40" value="" style="endArrow=block;endFill=0;endSize=12;html=1;rounded=0;" edge="1" parent="1">
          <mxGeometry width="160" relative="1" as="geometry">
            <mxPoint x="830" y="939" as="sourcePoint" />
            <mxPoint x="580" y="939" as="targetPoint" />
          </mxGeometry>
        </mxCell>
        <mxCell id="7k01nNC0SqOBBTKbioc5-41" value="" style="endArrow=block;endFill=0;endSize=12;html=1;rounded=0;" edge="1" parent="1">
          <mxGeometry width="160" relative="1" as="geometry">
            <mxPoint x="580" y="880" as="sourcePoint" />
            <mxPoint x="830" y="880" as="targetPoint" />
          </mxGeometry>
        </mxCell>
        <mxCell id="7k01nNC0SqOBBTKbioc5-45" value="" style="endArrow=block;dashed=1;endFill=0;endSize=12;html=1;rounded=0;" edge="1" parent="1" target="7k01nNC0SqOBBTKbioc5-44">
          <mxGeometry width="160" relative="1" as="geometry">
            <mxPoint x="314.5" y="95" as="sourcePoint" />
            <mxPoint x="315" y="1040" as="targetPoint" />
          </mxGeometry>
        </mxCell>
        <mxCell id="7k01nNC0SqOBBTKbioc5-44" value="" style="html=1;points=[];perimeter=orthogonalPerimeter;outlineConnect=0;targetShapes=umlLifeline;portConstraint=eastwest;newEdgeStyle={&quot;edgeStyle&quot;:&quot;elbowEdgeStyle&quot;,&quot;elbow&quot;:&quot;vertical&quot;,&quot;curved&quot;:0,&quot;rounded&quot;:0};" vertex="1" parent="1">
          <mxGeometry x="310" y="180" width="10" height="830" as="geometry" />
        </mxCell>
        <mxCell id="7k01nNC0SqOBBTKbioc5-47" value="" style="endArrow=block;dashed=1;endFill=0;endSize=12;html=1;rounded=0;" edge="1" parent="1" target="7k01nNC0SqOBBTKbioc5-46">
          <mxGeometry width="160" relative="1" as="geometry">
            <mxPoint x="574.5" y="95" as="sourcePoint" />
            <mxPoint x="575" y="1040" as="targetPoint" />
          </mxGeometry>
        </mxCell>
        <mxCell id="7k01nNC0SqOBBTKbioc5-46" value="" style="html=1;points=[];perimeter=orthogonalPerimeter;outlineConnect=0;targetShapes=umlLifeline;portConstraint=eastwest;newEdgeStyle={&quot;edgeStyle&quot;:&quot;elbowEdgeStyle&quot;,&quot;elbow&quot;:&quot;vertical&quot;,&quot;curved&quot;:0,&quot;rounded&quot;:0};" vertex="1" parent="1">
          <mxGeometry x="570" y="380" width="10" height="630" as="geometry" />
        </mxCell>
        <mxCell id="7k01nNC0SqOBBTKbioc5-49" value="" style="endArrow=block;dashed=1;endFill=0;endSize=12;html=1;rounded=0;" edge="1" parent="1" target="7k01nNC0SqOBBTKbioc5-48">
          <mxGeometry width="160" relative="1" as="geometry">
            <mxPoint x="834.5" y="95" as="sourcePoint" />
            <mxPoint x="835" y="1040" as="targetPoint" />
          </mxGeometry>
        </mxCell>
        <mxCell id="7k01nNC0SqOBBTKbioc5-48" value="" style="html=1;points=[];perimeter=orthogonalPerimeter;outlineConnect=0;targetShapes=umlLifeline;portConstraint=eastwest;newEdgeStyle={&quot;edgeStyle&quot;:&quot;elbowEdgeStyle&quot;,&quot;elbow&quot;:&quot;vertical&quot;,&quot;curved&quot;:0,&quot;rounded&quot;:0};" vertex="1" parent="1">
          <mxGeometry x="830" y="430" width="10" height="520" as="geometry" />
        </mxCell>
        <mxCell id="7k01nNC0SqOBBTKbioc5-51" value="" style="endArrow=block;dashed=1;endFill=0;endSize=12;html=1;rounded=0;" edge="1" parent="1" target="7k01nNC0SqOBBTKbioc5-50">
          <mxGeometry width="160" relative="1" as="geometry">
            <mxPoint x="1094.5" y="95" as="sourcePoint" />
            <mxPoint x="1095" y="1040" as="targetPoint" />
          </mxGeometry>
        </mxCell>
        <mxCell id="7k01nNC0SqOBBTKbioc5-50" value="" style="html=1;points=[];perimeter=orthogonalPerimeter;outlineConnect=0;targetShapes=umlLifeline;portConstraint=eastwest;newEdgeStyle={&quot;edgeStyle&quot;:&quot;elbowEdgeStyle&quot;,&quot;elbow&quot;:&quot;vertical&quot;,&quot;curved&quot;:0,&quot;rounded&quot;:0};" vertex="1" parent="1">
          <mxGeometry x="1090" y="750" width="10" height="80" as="geometry" />
        </mxCell>
        <mxCell id="7k01nNC0SqOBBTKbioc5-43" value="" style="endArrow=block;endFill=0;endSize=12;html=1;rounded=0;" edge="1" parent="1">
          <mxGeometry width="160" relative="1" as="geometry">
            <mxPoint x="1090" y="820" as="sourcePoint" />
            <mxPoint x="580" y="820" as="targetPoint" />
          </mxGeometry>
        </mxCell>
        <mxCell id="7k01nNC0SqOBBTKbioc5-42" value="" style="endArrow=block;endFill=0;endSize=12;html=1;rounded=0;" edge="1" parent="1">
          <mxGeometry width="160" relative="1" as="geometry">
            <mxPoint x="580" y="770" as="sourcePoint" />
            <mxPoint x="1090" y="770" as="targetPoint" />
          </mxGeometry>
        </mxCell>
        <mxCell id="7k01nNC0SqOBBTKbioc5-21" value="&lt;pre&gt;&lt;code class=&quot;!whitespace-pre hljs language-rust&quot;&gt;Sends payment request&lt;/code&gt;&lt;/pre&gt;" style="text;html=1;align=center;verticalAlign=middle;resizable=0;points=[];autosize=1;strokeColor=none;fillColor=none;" vertex="1" parent="1">
          <mxGeometry x="750" y="728" width="170" height="50" as="geometry" />
        </mxCell>
        <mxCell id="7k01nNC0SqOBBTKbioc5-22" value="&lt;pre&gt;&lt;code class=&quot;!whitespace-pre hljs language-rust&quot;&gt;Sends payment confirmation&lt;/code&gt;&lt;/pre&gt;" style="text;html=1;align=center;verticalAlign=middle;resizable=0;points=[];autosize=1;strokeColor=none;fillColor=none;" vertex="1" parent="1">
          <mxGeometry x="730" y="778" width="210" height="50" as="geometry" />
        </mxCell>
      </root>
    </mxGraphModel>
  </diagram>
</mxfile>
